# xmcd
#
# Track frame offsets:
#	150
#	14124
#	26109
#	44463
#	60956
#	76628
#	94190
#	111068
#
# Disc length: 1652 seconds
#
# Revision: 3
# Processed by: cddbd v1.5.2PL0 Copyright (c) Steve Scherf et al.
# Submitted via: audiograbber 1.83.01
#
DISCID=5b067208
DTITLE=Various Artist - New Country - Volume 5 - Number 5
DYEAR=1998
DGENRE=Country
TTITLE0=The Mavericks - Someone Should Tell Her
TTITLE1=Daryle Singletary - The Real Deal
TTITLE2=James Intveld - Cryin' Over You
TTITLE3=Cheri Knight - All Blue
TTITLE4=Chris Knight - Summer Of '75
TTITLE5=Tanya Savory - When The River Rose
TTITLE6=Emmylou Harris and Robert Duvall - I Love To Tell The Story
TTITLE7=Kevin Gordon - Looking For The Killerman
EXTD=
EXTT0=
EXTT1=
EXTT2=
EXTT3=
EXTT4=
EXTT5=
EXTT6=
EXTT7=
PLAYORDER=
